<?xml version="1.0" encoding="utf-8"?>
<!-- Generator: Adobe Illustrator 26.1.0, SVG Export Plug-In . SVG Version: 6.00 Build 0)  -->
<svg version="1.1" id="Layer_1" xmlns="http://www.w3.org/2000/svg" xmlns:xlink="http://www.w3.org/1999/xlink" x="0px" y="0px"
	 viewBox="0 0 283 68" enable-background="new 0 0 283 68" xml:space="preserve">
<g>
	<path fill="#EFEFEF" d="M6,10h36c3.3,0,6,2.7,6,6v36c0,3.3-2.7,6-6,6H6c-3.3,0-6-2.7-6-6V16C0,12.7,2.7,10,6,10z"/>
</g>
<rect x="6" y="16" width="9" height="15"/>
<rect x="6" y="43" width="9" height="9"/>
<rect x="18" y="34" fill="#0088F1" width="24" height="18"/>
<rect x="18" y="16" width="24" height="15"/>
<rect x="6" y="34" width="9" height="6"/>
<path fill="#FFFFFF" d="M27,47.2v-0.3c0,0-0.3-0.3-0.3,0h-0.3c0,0,0,0.3-0.3,0.3c0,0.3,0,0.3,0.3,0.3c0,0,0.3,0,0.3,0.3
	c0,0,0.3,0,0.3-0.3V47.2z M32.1,43.9l-5.4,5.4c-0.3,0.3-0.3,0.3-0.6,0.3s-0.6,0-0.6-0.3l-0.9-0.9C24,48.1,24,48.1,24,47.8
	c0-0.3,0-0.6,0.3-0.6l5.4-5.4c0.3,0.6,0.6,0.9,0.9,1.5C30.9,43.3,31.5,43.6,32.1,43.9L32.1,43.9z M37.2,40.3c0,0.3,0,0.6-0.3,0.9
	c-0.3,0.6-0.6,1.2-1.2,1.8c-0.6,0.3-1.2,0.6-2.1,0.6s-1.8-0.3-2.4-0.9C30.3,41.8,30,40.9,30,40s0.3-1.8,0.9-2.4
	c0.6-0.6,1.5-0.9,2.4-1.2c0.3,0,0.6,0,0.9,0c0.3,0,0.6,0.3,0.9,0.3c0,0,0,0,0,0.3c0,0.3,0,0.3,0,0.3L33,38.8v1.8l1.5,0.9
	c0,0,0.3,0,0.6-0.3c0.3-0.3,0.9-0.6,1.2-0.6C36.6,40.6,36.6,40,37.2,40.3C36.9,40,36.9,40,37.2,40.3C36.9,40.3,37.2,40.3,37.2,40.3
	L37.2,40.3z"/>
<g>
	<path fill="#757575" d="M66.3,42.2c-4.2,0-7.3-3.1-7.3-7.4c0-4.4,3.1-7.5,7.3-7.5c3.4,0,5.6,1.9,6.6,4.4l-2.1,0.9
		c-0.7-2-2.3-3.2-4.5-3.2c-2.9,0-5,2.2-5,5.4s2.1,5.4,5.2,5.4c2.5,0,4.3-1.4,4.9-4.1h-5.1v-1.7h7.2C73.4,39.2,70.3,42.2,66.3,42.2z"
		/>
	<path fill="#757575" d="M75.5,26.8h2.2v15.2h-2.2V26.8z"/>
	<path fill="#757575" d="M90.1,31v10.9h-2.1v-1.4c-0.7,1-2,1.6-3.5,1.6c-2.8,0-4.3-1.9-4.3-4.4V31h2.2v6.5c0,1.6,1.1,2.7,2.7,2.7
		c1.7,0,2.8-1.2,2.8-2.5V31H90.1z"/>
	<path fill="#757575" d="M97.9,40.2c1.6,0,2.6-0.6,3-1.7l1.8,1.1c-0.8,1.5-2.3,2.6-4.9,2.6c-3.4,0-5.7-2.4-5.7-5.7
		c0-3.2,2.5-5.7,5.6-5.7c3.4,0,5.5,2.7,5.5,5.5c0,0.4,0,0.8,0,1h-8.8C94.6,39.1,96,40.2,97.9,40.2z M101,35.5c-0.3-1.8-1.6-3-3.2-3
		c-1.7,0-3.1,1.1-3.4,3H101z"/>
	<path fill="#757575" d="M115.4,38.6h-1.8v3.3h-2.2v-3.3h-7.3V37l7.3-9.5h2.2v9.3h1.8V38.6z M111.5,30.4l-5,6.5h5V30.4z"/>
	<path fill="#757575" d="M126.6,40.1v1.8h-9.9v-1.5l5.2-5.2c1.1-1,2.2-2.4,2.2-3.9c0-1.3-1-2.2-2.5-2.2c-1.3,0-2.5,0.8-2.9,2.3
		l-2.1-0.7c0.5-2.1,2.5-3.5,5-3.5c2.8,0,4.7,1.6,4.7,4c0,1.9-1.2,3.5-2.8,5l-3.7,3.8H126.6z"/>
	<path fill="#757575" d="M132.4,38.6l2.1-0.8c0.4,1.5,1.6,2.4,3.3,2.4c1.7,0,2.7-0.8,2.7-2.1c0-3.5-7.4-2-7.4-7
		c0-2.3,1.7-3.9,4.7-3.9c2.5,0,4.2,1.2,4.7,3.1l-2.1,0.8c-0.4-1.4-1.3-2-2.8-2c-1.6,0-2.4,0.8-2.4,1.8c0,3.3,7.5,1.7,7.5,7.1
		c0,2.4-2,4-5.1,4C135,42.2,133.1,40.9,132.4,38.6z"/>
	<path fill="#757575" d="M150,40.2c1.6,0,2.5-0.6,3-1.7l1.8,1.1c-0.8,1.5-2.3,2.6-4.9,2.6c-3.4,0-5.7-2.4-5.7-5.7
		c0-3.2,2.5-5.7,5.6-5.7c3.4,0,5.5,2.7,5.5,5.5c0,0.4,0,0.8,0,1h-8.8C146.7,39.1,148.1,40.2,150,40.2z M153.1,35.5
		c-0.3-1.8-1.6-3-3.2-3c-1.7,0-3.1,1.1-3.4,3H153.1z"/>
	<path fill="#757575" d="M162.7,30.7v2.1c-1.9,0-3.2,1.2-3.2,2.7v6.4h-2.2V31h2.1v1.4C160,31.5,161.2,30.7,162.7,30.7z"/>
	<path fill="#757575" d="M174.2,31l-4.3,10.9h-2.5L163.1,31h2.3l3.3,8.8L172,31H174.2z"/>
	<path fill="#757575" d="M180.4,40.2c1.6,0,2.5-0.6,3-1.7l1.8,1.1c-0.8,1.5-2.3,2.6-4.9,2.6c-3.4,0-5.7-2.4-5.7-5.7
		c0-3.2,2.5-5.7,5.6-5.7c3.4,0,5.5,2.7,5.5,5.5c0,0.4,0,0.8,0,1h-8.8C177.1,39.1,178.6,40.2,180.4,40.2z M183.5,35.5
		c-0.3-1.8-1.6-3-3.2-3c-1.7,0-3.1,1.1-3.4,3H183.5z"/>
	<path fill="#757575" d="M193.1,30.7v2.1c-1.9,0-3.2,1.2-3.2,2.7v6.4h-2.2V31h2.1v1.4C190.4,31.5,191.6,30.7,193.1,30.7z"/>
	<path fill="#757575" d="M206.4,38.2h-5.9l-1.3,3.8h-2.2l5.1-14.4h2.7l5.1,14.4h-2.2L206.4,38.2z M205.8,36.3l-2.3-6.5l-2.3,6.5
		H205.8z"/>
	<path fill="#757575" d="M221.9,26.8v15.2h-2v-1.7c-0.9,1.2-2.2,1.9-3.9,1.9c-3.1,0-5.4-2.4-5.4-5.7c0-3.2,2.2-5.7,5.3-5.7
		c1.6,0,2.9,0.6,3.8,1.7v-5.7H221.9z M219.7,36.5c0-2.2-1.4-3.8-3.5-3.8c-2,0-3.5,1.6-3.5,3.8c0,2.2,1.5,3.8,3.5,3.8
		C218.3,40.2,219.7,38.7,219.7,36.5z"/>
	<path fill="#757575" d="M241.7,35.2v6.8h-2.2v-6.4c0-1.6-1-2.9-2.6-2.8c-1.7,0-2.7,1.3-2.7,2.4v6.8H232v-6.4c0-1.6-1-2.9-2.6-2.8
		c-1.7,0-2.7,1.3-2.7,2.4v6.8h-2.2V31h2.1v1.4c0.7-0.9,1.9-1.6,3.4-1.6c1.8,0,3,0.7,3.6,2c0.6-1.1,1.9-2,3.8-2
		C240.2,30.7,241.7,32.7,241.7,35.2z"/>
	<path fill="#757575" d="M243.8,27.6c0-0.9,0.7-1.6,1.6-1.6s1.6,0.7,1.6,1.6c0,0.9-0.7,1.5-1.6,1.5S243.8,28.5,243.8,27.6z
		 M244.3,31h2.2v10.9h-2.2V31z"/>
	<path fill="#757575" d="M259.2,35.2v6.7H257v-6.3c0-1.8-1.1-2.9-2.8-2.9c-1.6,0-2.8,1.2-2.9,2.6v6.7h-2.2V31h2.1v1.4
		c0.7-1,2-1.6,3.6-1.6C257.6,30.7,259.2,32.5,259.2,35.2z"/>
	<path fill="#757575" d="M277.4,27.5v9c0,3.1-1.8,5.7-5.5,5.7c-3.7,0-5.6-2.6-5.6-5.7v-9h2.2v9c0,2.1,1.1,3.6,3.4,3.6
		c2.2,0,3.3-1.6,3.3-3.6v-9H277.4z"/>
	<path fill="#757575" d="M280.4,27.5h2.2v14.4h-2.2V27.5z"/>
</g>
</svg>
